<svg xmlns="http://www.w3.org/2000/svg" width="27.071" height="22" viewBox="0 0 27.071 22">
  <defs>
    <style>
      .cls-1 {
        fill: #232323;
      }
    </style>
  </defs>
  <path id="iconmonstr-twitter-1" class="cls-1" d="M27.071,4.852a11.089,11.089,0,0,1-3.19.874,5.563,5.563,0,0,0,2.442-3.073A11.126,11.126,0,0,1,22.8,4a5.558,5.558,0,0,0-9.465,5.065,15.767,15.767,0,0,1-11.447-5.8A5.561,5.561,0,0,0,3.6,10.68a5.53,5.53,0,0,1-2.514-.695A5.558,5.558,0,0,0,5.543,15.5a5.567,5.567,0,0,1-2.509.095,5.558,5.558,0,0,0,5.189,3.857A11.167,11.167,0,0,1,0,21.753a15.723,15.723,0,0,0,8.514,2.5A15.707,15.707,0,0,0,24.3,7.728a11.308,11.308,0,0,0,2.771-2.875Z" transform="translate(0 -2.248)"/>
</svg>
