<svg xmlns="http://www.w3.org/2000/svg" width="38.871" height="22.175" viewBox="0 0 38.871 22.175">
  <defs>
    <style>
      .cls-1 {
        fill: #232323;
      }
    </style>
  </defs>
  <g id="vkcom" transform="translate(-193.498 -332.791)">
    <path id="Path_32" data-name="Path 32" class="cls-1" d="M201.516,352.874h2.323a1.964,1.964,0,0,0,1.06-.463,1.7,1.7,0,0,0,.319-1.021s-.045-3.117,1.4-3.577c1.427-.452,3.258,3.013,5.2,4.346a3.682,3.682,0,0,0,2.584.787l5.191-.073s2.715-.168,1.428-2.3c-.105-.174-.75-1.579-3.86-4.466-3.255-3.021-2.819-2.532,1.1-7.758,2.388-3.182,3.342-5.125,3.044-5.957-.284-.793-2.041-.583-2.041-.583l-5.845.036a1.327,1.327,0,0,0-.755.133,1.63,1.63,0,0,0-.516.627,33.92,33.92,0,0,1-2.159,4.557c-2.6,4.419-3.643,4.653-4.069,4.378-.99-.64-.742-2.569-.742-3.94,0-4.283.65-6.068-1.265-6.531a10,10,0,0,0-2.728-.271c-2.086-.021-3.85.006-4.85.5-.665.326-1.178,1.051-.865,1.093a2.623,2.623,0,0,1,1.725.867,5.639,5.639,0,0,1,.578,2.645s.344,5.042-.8,5.668c-.788.43-1.869-.447-4.189-4.457a37.3,37.3,0,0,1-2.086-4.324,1.736,1.736,0,0,0-.482-.651,2.414,2.414,0,0,0-.9-.362l-5.554.036s-.834.023-1.14.386c-.273.323-.022.99-.022.99s4.348,10.173,9.272,15.3a13.337,13.337,0,0,0,9.641,4.392" transform="translate(11 2)"/>
  </g>
</svg>
