<svg xmlns="http://www.w3.org/2000/svg" width="27.072" height="27.072" viewBox="0 0 27.072 27.072">
  <defs>
    <style>
      .cls-1 {
        fill: #232323;
      }
    </style>
  </defs>
  <path id="iconmonstr-facebook-6" class="cls-1" d="M25.578,0H1.495A1.494,1.494,0,0,0,0,1.495V25.579a1.494,1.494,0,0,0,1.495,1.493H14.461V16.589H10.933V12.5h3.528V9.49c0-3.5,2.135-5.4,5.255-5.4a28.941,28.941,0,0,1,3.153.161V7.905H20.706c-1.7,0-2.025.807-2.025,1.989V12.5h4.046L22.2,16.59H18.681V27.072h6.9a1.494,1.494,0,0,0,1.492-1.495V1.495A1.494,1.494,0,0,0,25.578,0Z"/>
</svg>
